<mxfile host="app.diagrams.net" modified="2022-03-04T08:07:02.973Z" agent="5.0 (Windows NT 10.0; Win64; x64) AppleWebKit/537.36 (KHTML, like Gecko) Chrome/98.0.4758.102 Safari/537.36" etag="2BZFFBuo1TnVzuAOO9ib" version="16.6.5" type="github">
  <diagram id="C5RBs43oDa-KdzZeNtuy" name="Page-1">
    <mxGraphModel dx="2310" dy="919" grid="1" gridSize="10" guides="1" tooltips="1" connect="1" arrows="1" fold="1" page="1" pageScale="1" pageWidth="827" pageHeight="1169" math="0" shadow="0">
      <root>
        <mxCell id="WIyWlLk6GJQsqaUBKTNV-0" />
        <mxCell id="WIyWlLk6GJQsqaUBKTNV-1" parent="WIyWlLk6GJQsqaUBKTNV-0" />
        <mxCell id="tAreWkUOVzhjppDl2nYF-1" value="" style="edgeStyle=orthogonalEdgeStyle;rounded=0;orthogonalLoop=1;jettySize=auto;html=1;" edge="1" parent="WIyWlLk6GJQsqaUBKTNV-1" source="WIyWlLk6GJQsqaUBKTNV-3" target="tAreWkUOVzhjppDl2nYF-0">
          <mxGeometry relative="1" as="geometry" />
        </mxCell>
        <mxCell id="WIyWlLk6GJQsqaUBKTNV-3" value="In smax sync to&amp;nbsp; cms process" style="rounded=1;whiteSpace=wrap;html=1;fontSize=12;glass=0;strokeWidth=1;shadow=0;" parent="WIyWlLk6GJQsqaUBKTNV-1" vertex="1">
          <mxGeometry x="160" y="80" width="120" height="40" as="geometry" />
        </mxCell>
        <mxCell id="tAreWkUOVzhjppDl2nYF-3" value="" style="edgeStyle=orthogonalEdgeStyle;rounded=0;orthogonalLoop=1;jettySize=auto;html=1;" edge="1" parent="WIyWlLk6GJQsqaUBKTNV-1" source="tAreWkUOVzhjppDl2nYF-0" target="tAreWkUOVzhjppDl2nYF-2">
          <mxGeometry relative="1" as="geometry">
            <Array as="points">
              <mxPoint x="220" y="290" />
              <mxPoint x="220" y="290" />
            </Array>
          </mxGeometry>
        </mxCell>
        <mxCell id="tAreWkUOVzhjppDl2nYF-0" value="Query the ci in CMS by the globalId" style="rounded=1;whiteSpace=wrap;html=1;fontSize=12;glass=0;strokeWidth=1;shadow=0;" vertex="1" parent="WIyWlLk6GJQsqaUBKTNV-1">
          <mxGeometry x="160" y="200" width="120" height="40" as="geometry" />
        </mxCell>
        <mxCell id="tAreWkUOVzhjppDl2nYF-5" value="" style="edgeStyle=orthogonalEdgeStyle;rounded=0;orthogonalLoop=1;jettySize=auto;html=1;" edge="1" parent="WIyWlLk6GJQsqaUBKTNV-1" source="tAreWkUOVzhjppDl2nYF-2" target="tAreWkUOVzhjppDl2nYF-4">
          <mxGeometry relative="1" as="geometry" />
        </mxCell>
        <mxCell id="tAreWkUOVzhjppDl2nYF-2" value="The ci not existed in ucmdb. Because the global Id comes from OPB." style="rounded=1;whiteSpace=wrap;html=1;fontSize=12;glass=0;strokeWidth=1;shadow=0;" vertex="1" parent="WIyWlLk6GJQsqaUBKTNV-1">
          <mxGeometry x="150" y="320" width="160" height="90" as="geometry" />
        </mxCell>
        <mxCell id="tAreWkUOVzhjppDl2nYF-7" value="" style="edgeStyle=orthogonalEdgeStyle;rounded=0;orthogonalLoop=1;jettySize=auto;html=1;" edge="1" parent="WIyWlLk6GJQsqaUBKTNV-1" source="tAreWkUOVzhjppDl2nYF-4" target="tAreWkUOVzhjppDl2nYF-6">
          <mxGeometry relative="1" as="geometry" />
        </mxCell>
        <mxCell id="tAreWkUOVzhjppDl2nYF-4" value="The ci will be create in CMS." style="rounded=1;whiteSpace=wrap;html=1;fontSize=12;glass=0;strokeWidth=1;shadow=0;" vertex="1" parent="WIyWlLk6GJQsqaUBKTNV-1">
          <mxGeometry x="150" y="490" width="160" height="90" as="geometry" />
        </mxCell>
        <mxCell id="tAreWkUOVzhjppDl2nYF-9" value="" style="edgeStyle=orthogonalEdgeStyle;rounded=0;orthogonalLoop=1;jettySize=auto;html=1;" edge="1" parent="WIyWlLk6GJQsqaUBKTNV-1" source="tAreWkUOVzhjppDl2nYF-6" target="tAreWkUOVzhjppDl2nYF-8">
          <mxGeometry relative="1" as="geometry" />
        </mxCell>
        <mxCell id="tAreWkUOVzhjppDl2nYF-6" value="The ci create failed.&amp;nbsp;&lt;br&gt;Because the same displayname ci already existed in CMS." style="rounded=1;whiteSpace=wrap;html=1;fontSize=12;glass=0;strokeWidth=1;shadow=0;" vertex="1" parent="WIyWlLk6GJQsqaUBKTNV-1">
          <mxGeometry x="150" y="660" width="160" height="90" as="geometry" />
        </mxCell>
        <mxCell id="tAreWkUOVzhjppDl2nYF-11" value="" style="edgeStyle=orthogonalEdgeStyle;rounded=0;orthogonalLoop=1;jettySize=auto;html=1;" edge="1" parent="WIyWlLk6GJQsqaUBKTNV-1" source="tAreWkUOVzhjppDl2nYF-8" target="tAreWkUOVzhjppDl2nYF-10">
          <mxGeometry relative="1" as="geometry" />
        </mxCell>
        <mxCell id="tAreWkUOVzhjppDl2nYF-8" value="Handle the error.&lt;br&gt;Correct the ci." style="rounded=1;whiteSpace=wrap;html=1;fontSize=12;glass=0;strokeWidth=1;shadow=0;" vertex="1" parent="WIyWlLk6GJQsqaUBKTNV-1">
          <mxGeometry x="390" y="660" width="160" height="90" as="geometry" />
        </mxCell>
        <mxCell id="tAreWkUOVzhjppDl2nYF-13" value="" style="edgeStyle=orthogonalEdgeStyle;rounded=0;orthogonalLoop=1;jettySize=auto;html=1;" edge="1" parent="WIyWlLk6GJQsqaUBKTNV-1" source="tAreWkUOVzhjppDl2nYF-10" target="tAreWkUOVzhjppDl2nYF-12">
          <mxGeometry relative="1" as="geometry" />
        </mxCell>
        <mxCell id="tAreWkUOVzhjppDl2nYF-10" value="query the ci in CMS by display Label." style="rounded=1;whiteSpace=wrap;html=1;fontSize=12;glass=0;strokeWidth=1;shadow=0;" vertex="1" parent="WIyWlLk6GJQsqaUBKTNV-1">
          <mxGeometry x="390" y="490" width="160" height="90" as="geometry" />
        </mxCell>
        <mxCell id="tAreWkUOVzhjppDl2nYF-15" value="" style="edgeStyle=orthogonalEdgeStyle;rounded=0;orthogonalLoop=1;jettySize=auto;html=1;" edge="1" parent="WIyWlLk6GJQsqaUBKTNV-1" source="tAreWkUOVzhjppDl2nYF-12" target="tAreWkUOVzhjppDl2nYF-14">
          <mxGeometry relative="1" as="geometry" />
        </mxCell>
        <mxCell id="tAreWkUOVzhjppDl2nYF-12" value="We found the ci and we want to pull CMS ci attributes to SMAX.&amp;nbsp;" style="rounded=1;whiteSpace=wrap;html=1;fontSize=12;glass=0;strokeWidth=1;shadow=0;" vertex="1" parent="WIyWlLk6GJQsqaUBKTNV-1">
          <mxGeometry x="390" y="320" width="160" height="90" as="geometry" />
        </mxCell>
        <mxCell id="tAreWkUOVzhjppDl2nYF-17" value="" style="edgeStyle=orthogonalEdgeStyle;rounded=0;orthogonalLoop=1;jettySize=auto;html=1;" edge="1" parent="WIyWlLk6GJQsqaUBKTNV-1" source="tAreWkUOVzhjppDl2nYF-14" target="tAreWkUOVzhjppDl2nYF-16">
          <mxGeometry relative="1" as="geometry" />
        </mxCell>
        <mxCell id="tAreWkUOVzhjppDl2nYF-14" value="Before persisting to SMAX database, we have a filter:&lt;br&gt;query the ci in SMAX by GlobalId." style="rounded=1;whiteSpace=wrap;html=1;fontSize=12;glass=0;strokeWidth=1;shadow=0;" vertex="1" parent="WIyWlLk6GJQsqaUBKTNV-1">
          <mxGeometry x="390" y="150" width="160" height="90" as="geometry" />
        </mxCell>
        <mxCell id="tAreWkUOVzhjppDl2nYF-16" value="We found the ci in SMAX.&lt;br&gt;Program thinks that the ci is a duplicate ci.&amp;nbsp; So it record&amp;nbsp;&lt;br&gt;&quot;Duplicated display label is not allowed by UCMDB&quot;.&amp;nbsp;" style="rounded=1;whiteSpace=wrap;html=1;fontSize=12;glass=0;strokeWidth=1;shadow=0;fillColor=#fff2cc;strokeColor=#d6b656;" vertex="1" parent="WIyWlLk6GJQsqaUBKTNV-1">
          <mxGeometry x="630" y="150" width="160" height="90" as="geometry" />
        </mxCell>
        <mxCell id="tAreWkUOVzhjppDl2nYF-18" value="&lt;h1&gt;&lt;br&gt;&lt;/h1&gt;" style="text;html=1;strokeColor=none;fillColor=none;spacing=5;spacingTop=-20;whiteSpace=wrap;overflow=hidden;rounded=0;" vertex="1" parent="WIyWlLk6GJQsqaUBKTNV-1">
          <mxGeometry x="-80" y="430" width="190" height="120" as="geometry" />
        </mxCell>
        <mxCell id="tAreWkUOVzhjppDl2nYF-19" value="&lt;h1 style=&quot;text-align: left&quot;&gt;&lt;font style=&quot;font-size: 12px&quot;&gt;&amp;nbsp; &amp;nbsp; &amp;nbsp; &amp;nbsp;&lt;span&gt;	&lt;/span&gt;&lt;span&gt;	&lt;/span&gt;&lt;span&gt;	&lt;/span&gt;&lt;span&gt;	&lt;/span&gt;&amp;nbsp;In CMS synced to SMAX process&amp;nbsp;&lt;/font&gt;&lt;/h1&gt;&lt;div style=&quot;text-align: left&quot;&gt;&lt;font size=&quot;3&quot;&gt;&amp;nbsp; &amp;nbsp;In here, The data of SMAX and the data of CMS are&amp;nbsp; &amp;nbsp; &amp;nbsp; &amp;nbsp; &amp;nbsp; not aligned,&amp;nbsp;&lt;/font&gt;&lt;span style=&quot;font-size: medium&quot;&gt;the program don&#39;t think that the two ci is&amp;nbsp; &amp;nbsp; &amp;nbsp; &amp;nbsp; &amp;nbsp; &amp;nbsp;the same one. So it will be create it in SMAX.&lt;/span&gt;&lt;/div&gt;&lt;div style=&quot;text-align: left&quot;&gt;&lt;font size=&quot;3&quot;&gt;&lt;span style=&quot;white-space: pre&quot;&gt;	&lt;/span&gt;&lt;span style=&quot;white-space: pre&quot;&gt;	&lt;/span&gt;So there will be duplicate datas.&lt;/font&gt;&lt;br&gt;&lt;/div&gt;" style="ellipse;whiteSpace=wrap;html=1;fillColor=#fff2cc;strokeColor=#d6b656;" vertex="1" parent="WIyWlLk6GJQsqaUBKTNV-1">
          <mxGeometry x="-320" y="265" width="410" height="200" as="geometry" />
        </mxCell>
        <mxCell id="tAreWkUOVzhjppDl2nYF-22" value="" style="endArrow=none;dashed=1;html=1;dashPattern=1 3;strokeWidth=2;rounded=0;fontSize=12;entryX=0;entryY=0.5;entryDx=0;entryDy=0;exitX=1;exitY=0.5;exitDx=0;exitDy=0;" edge="1" parent="WIyWlLk6GJQsqaUBKTNV-1" source="tAreWkUOVzhjppDl2nYF-19" target="tAreWkUOVzhjppDl2nYF-2">
          <mxGeometry width="50" height="50" relative="1" as="geometry">
            <mxPoint x="90" y="410" as="sourcePoint" />
            <mxPoint x="140" y="360" as="targetPoint" />
          </mxGeometry>
        </mxCell>
      </root>
    </mxGraphModel>
  </diagram>
</mxfile>
